<?xml version="1.0" standalone="no"?>
<!DOCTYPE svg PUBLIC "-//W3C//DTD SVG 20010904//EN"
 "http://www.w3.org/TR/2001/REC-SVG-20010904/DTD/svg10.dtd">
<svg version="1.0" xmlns="http://www.w3.org/2000/svg"
 width="920.000000pt" height="800.000000pt" viewBox="0 0 920.000000 800.000000"
 preserveAspectRatio="xMidYMid meet">

<g transform="translate(0.000000,800.000000) scale(0.100000,-0.100000)"
fill="#343f53" stroke="none">
<path d="M4355 7364 c-16 -2 -73 -9 -125 -15 -361 -41 -766 -175 -1088 -360
-232 -134 -408 -267 -605 -459 -468 -455 -756 -1016 -859 -1675 -19 -120 -22
-181 -22 -425 0 -246 3 -305 22 -429 85 -542 300 -1025 642 -1442 90 -109 317
-333 430 -422 255 -204 586 -383 890 -484 l106 -35 -98 -247 c-139 -348 -143
-366 -113 -468 25 -85 64 -127 159 -173 171 -83 418 -119 617 -91 96 14 260
66 346 110 105 53 175 110 704 577 288 253 540 475 560 492 l36 32 271 -324
c150 -178 278 -329 286 -335 11 -9 32 9 107 94 137 155 210 261 292 425 115
228 172 425 198 680 12 119 7 306 -11 417 l-10 62 41 68 c61 99 179 343 221
458 122 331 176 608 185 951 12 452 -57 822 -232 1239 -68 163 -144 302 -260
475 -128 190 -235 318 -396 475 -462 448 -999 711 -1654 811 -95 15 -569 28
-640 18z m655 -353 c564 -97 1045 -344 1440 -740 306 -308 529 -680 654 -1094
178 -589 133 -1249 -124 -1821 l-22 -49 -45 89 c-95 187 -206 336 -369 495
-88 84 -213 189 -228 189 -5 0 -186 -256 -186 -263 0 -2 36 -32 79 -66 242
-190 430 -470 516 -767 46 -157 59 -256 59 -434 0 -291 -69 -547 -211 -782
l-47 -78 -27 27 c-15 16 -253 298 -529 628 -277 330 -530 628 -563 662 -69 71
-148 111 -232 120 l-55 6 0 -167 c0 -157 1 -166 19 -166 13 0 113 -111 307
-342 158 -188 287 -347 288 -354 1 -6 -255 -237 -569 -513 -529 -466 -577
-505 -660 -547 -123 -61 -222 -84 -355 -84 -99 0 -231 23 -274 47 -11 6 21 97
153 433 92 234 177 443 188 465 119 234 116 510 -8 761 l-40 80 328 573 c180
315 344 591 363 614 19 22 61 58 94 79 105 68 123 71 491 78 373 8 388 10 545
87 81 40 109 61 190 143 110 110 157 184 202 320 29 87 32 106 32 230 0 147
-13 213 -64 326 -115 254 -375 440 -642 461 l-78 6 0 -167 0 -166 39 0 c96 0
228 -65 303 -149 220 -247 116 -634 -199 -740 -54 -18 -92 -21 -374 -24 -251
-3 -327 -7 -378 -21 -69 -18 -213 -82 -260 -115 -39 -28 -41 -27 -41 15 0 20
-9 82 -21 137 -93 462 -395 856 -818 1067 -185 93 -441 160 -612 160 l-69 0 0
-164 0 -164 64 -1 c79 0 242 -33 338 -67 324 -116 596 -380 719 -698 113 -292
102 -645 -27 -925 -19 -42 -130 -242 -247 -445 l-212 -370 -3 -76 c-4 -70 -2
-79 32 -140 98 -178 124 -268 111 -375 -8 -62 -103 -305 -119 -305 -16 0 -162
50 -258 89 -372 149 -747 420 -1004 725 -170 201 -343 492 -439 736 -174 444
-221 978 -129 1454 126 648 508 1238 1054 1626 352 251 759 409 1200 465 163
21 569 13 730 -14z"/>
<path d="M5010 2205 c-65 -105 -227 -111 -306 -11 -16 20 -33 36 -37 36 -5 0
-46 -16 -93 -36 l-84 -36 23 -40 c34 -62 128 -143 194 -169 88 -35 218 -33
296 3 32 15 76 41 96 58 48 37 118 137 105 150 -5 5 -46 25 -91 44 l-82 35
-21 -34z"/>
</g>
</svg>
